<svg width="159" height="36" viewBox="0 0 159 36" fill="none" xmlns="http://www.w3.org/2000/svg">
<mask id="path-1-outside-1_4234_1861" maskUnits="userSpaceOnUse" x="1.5" y="6" width="156" height="24" fill="black">
<rect fill="white" x="1.5" y="6" width="156" height="24"/>
<path d="M10.94 28H3.2V7.81H11C16.04 7.81 19.07 9.91 19.07 13.36C19.07 15.67 17.84 17.23 15.92 17.95C17.93 18.52 19.28 19.81 19.28 22.36C19.28 26.32 15.77 28 10.94 28ZM7.58 11.41V16.21H11.21C13.61 16.21 14.69 15.37 14.69 13.72C14.69 12.22 13.49 11.41 11.24 11.41H7.58ZM7.58 19.81V24.4H11.18C13.31 24.4 14.9 23.92 14.9 22.06C14.9 20.35 13.67 19.81 11.21 19.81H7.58ZM20.3527 28L25.6927 10.66C26.3827 8.47 28.1827 7.42 30.0727 7.42C31.9927 7.42 33.7927 8.47 34.4827 10.66L39.8227 28H35.3527L34.1827 23.86L25.9927 23.89L24.8227 28H20.3527ZM29.4427 11.95L27.1327 19.96H33.0427L30.7627 11.95C30.6427 11.53 30.4627 11.35 30.1027 11.35C29.7727 11.35 29.5627 11.53 29.4427 11.95ZM46.4593 7.81V23.95H55.8793V28H45.9493C43.1593 28 42.0793 26.56 42.0793 24.25V7.81H46.4593ZM62.0464 7.81V23.95H71.4664V28H61.5364C58.7464 28 57.6664 26.56 57.6664 24.25V7.81H62.0464ZM71.5086 28L76.8486 10.66C77.5386 8.47 79.3386 7.42 81.2286 7.42C83.1486 7.42 84.9486 8.47 85.6386 10.66L90.9786 28H86.5086L85.3386 23.86L77.1486 23.89L75.9786 28H71.5086ZM80.5986 11.95L78.2886 19.96H84.1986L81.9186 11.95C81.7986 11.53 81.6186 11.35 81.2586 11.35C80.9286 11.35 80.7186 11.53 80.5986 11.95ZM96.3852 28H91.9452L94.6752 10.63C95.0352 8.53 96.5052 7.42 98.5452 7.42C100.345 7.42 101.875 8.2 102.355 10.15L105.745 22.75C105.745 22.84 105.775 22.84 105.775 22.84C105.805 22.84 105.835 22.84 105.835 22.75L109.165 10.24C109.675 8.29 111.235 7.42 113.065 7.42C115.075 7.42 116.515 8.56 116.815 10.72L119.305 28H114.865L112.915 12.16C112.915 12.01 112.885 11.92 112.765 11.92C112.675 11.92 112.615 11.98 112.585 12.1L108.835 25.48C108.415 27.01 107.215 27.76 105.775 27.76C104.395 27.76 103.105 27.04 102.745 25.57L98.9952 12.1C98.9652 11.95 98.9052 11.92 98.8452 11.92C98.7552 11.92 98.6652 11.98 98.6652 12.13L96.3852 28ZM120.261 28L125.601 10.66C126.291 8.47 128.091 7.42 129.981 7.42C131.901 7.42 133.701 8.47 134.391 10.66L139.731 28H135.261L134.091 23.86L125.901 23.89L124.731 28H120.261ZM129.351 11.95L127.041 19.96H132.951L130.671 11.95C130.551 11.53 130.371 11.35 130.011 11.35C129.681 11.35 129.471 11.53 129.351 11.95ZM148.468 28.39C144.838 28.39 141.928 26.86 140.638 23.98L144.298 22.15C144.958 23.62 146.368 24.37 148.468 24.37C150.358 24.37 151.798 23.59 151.798 22.15C151.798 20.47 150.208 20.2 148.108 19.84C145.078 19.33 140.968 18.25 140.968 13.69C140.968 10.15 144.148 7.45 148.318 7.45C151.648 7.45 154.528 8.98 155.818 11.86L152.158 13.69C151.498 12.4 150.178 11.5 148.138 11.5C146.488 11.5 145.348 12.28 145.348 13.51C145.348 15.13 147.028 15.55 149.218 15.94C152.218 16.45 156.178 17.53 156.178 22.12C156.178 25.75 152.758 28.39 148.468 28.39Z"/>
</mask>
<path d="M3.2 28H2.2V29H3.2V28ZM3.2 7.81V6.81H2.2V7.81H3.2ZM15.92 17.95L15.5689 17.0137L12.72 18.082L15.6472 18.9121L15.92 17.95ZM7.58 11.41V10.41H6.58V11.41H7.58ZM7.58 16.21H6.58V17.21H7.58V16.21ZM7.58 19.81V18.81H6.58V19.81H7.58ZM7.58 24.4H6.58V25.4H7.58V24.4ZM10.94 27H3.2V29H10.94V27ZM4.2 28V7.81H2.2V28H4.2ZM3.2 8.81H11V6.81H3.2V8.81ZM11 8.81C13.3997 8.81 15.1939 9.31266 16.3575 10.1146C17.4807 10.8887 18.07 11.9717 18.07 13.36H20.07C20.07 11.2983 19.1443 9.60627 17.4925 8.46786C15.8811 7.35734 13.6403 6.81 11 6.81V8.81ZM18.07 13.36C18.07 14.3312 17.814 15.0904 17.4005 15.6711C16.9848 16.2548 16.3705 16.713 15.5689 17.0137L16.2711 18.8863C17.3895 18.467 18.3502 17.7852 19.0295 16.8314C19.711 15.8746 20.07 14.6988 20.07 13.36H18.07ZM15.6472 18.9121C16.5236 19.1606 17.1613 19.5393 17.5829 20.0495C17.9955 20.5489 18.28 21.2694 18.28 22.36H20.28C20.28 20.9006 19.8895 19.7011 19.1246 18.7755C18.3687 17.8607 17.3264 17.3094 16.1928 16.9879L15.6472 18.9121ZM18.28 22.36C18.28 23.9834 17.5906 25.0761 16.3957 25.8142C15.1379 26.5912 13.2654 27 10.94 27V29C13.4446 29 15.7421 28.5688 17.4468 27.5158C19.2144 26.4239 20.28 24.6966 20.28 22.36H18.28ZM6.58 11.41V16.21H8.58V11.41H6.58ZM7.58 17.21H11.21V15.21H7.58V17.21ZM11.21 17.21C12.4936 17.21 13.6179 16.9915 14.4398 16.3913C15.3251 15.7448 15.69 14.7856 15.69 13.72H13.69C13.69 14.3044 13.5149 14.5902 13.2603 14.7762C12.9421 15.0085 12.3264 15.21 11.21 15.21V17.21ZM15.69 13.72C15.69 12.659 15.242 11.7599 14.3659 11.1721C13.5502 10.6248 12.4585 10.41 11.24 10.41V12.41C12.2715 12.41 12.9048 12.6002 13.2516 12.8329C13.538 13.0251 13.69 13.281 13.69 13.72H15.69ZM11.24 10.41H7.58V12.41H11.24V10.41ZM6.58 19.81V24.4H8.58V19.81H6.58ZM7.58 25.4H11.18V23.4H7.58V25.4ZM11.18 25.4C12.2802 25.4 13.4178 25.2833 14.3078 24.8107C14.7728 24.5637 15.1865 24.2112 15.4777 23.7215C15.7683 23.233 15.9 22.6703 15.9 22.06H13.9C13.9 22.3797 13.8329 22.5745 13.7588 22.6991C13.6854 22.8226 13.5685 22.9388 13.3697 23.0443C12.9322 23.2767 12.2098 23.4 11.18 23.4V25.4ZM15.9 22.06C15.9 21.5146 15.8019 20.9901 15.5536 20.52C15.3008 20.0413 14.9249 19.6814 14.4708 19.4239C13.6146 18.9383 12.4645 18.81 11.21 18.81V20.81C12.4155 20.81 13.1104 20.9517 13.4842 21.1636C13.6451 21.2549 13.7305 21.3506 13.7851 21.4541C13.8443 21.5662 13.9 21.7504 13.9 22.06H15.9ZM11.21 18.81H7.58V20.81H11.21V18.81ZM20.3527 28L19.397 27.7057L18.9984 29H20.3527V28ZM25.6927 10.66L24.7389 10.3595L24.737 10.3657L25.6927 10.66ZM34.4827 10.66L35.4385 10.3657L35.4365 10.3595L34.4827 10.66ZM39.8227 28V29H41.177L40.7784 27.7057L39.8227 28ZM35.3527 28L34.3904 28.272L34.5962 29H35.3527V28ZM34.1827 23.86L35.145 23.588L34.9385 22.8572L34.1791 22.86L34.1827 23.86ZM25.9927 23.89L25.9891 22.89L25.2369 22.8928L25.0309 23.6162L25.9927 23.89ZM24.8227 28V29H25.5778L25.7845 28.2738L24.8227 28ZM29.4427 11.95L30.4036 12.2271L30.4043 12.2247L29.4427 11.95ZM27.1327 19.96L26.1719 19.6829L25.8036 20.96H27.1327V19.96ZM33.0427 19.96V20.96H34.3671L34.0045 19.6862L33.0427 19.96ZM30.7627 11.95L31.7245 11.6762L31.7243 11.6753L30.7627 11.95ZM21.3084 28.2943L26.6484 10.9543L24.737 10.3657L19.397 27.7057L21.3084 28.2943ZM26.6465 10.9605C27.1927 9.22709 28.5755 8.42 30.0727 8.42V6.42C27.7899 6.42 25.5728 7.7129 24.739 10.3595L26.6465 10.9605ZM30.0727 8.42C31.6038 8.42 32.9839 9.23053 33.529 10.9605L35.4365 10.3595C34.6016 7.70946 32.3817 6.42 30.0727 6.42V8.42ZM33.527 10.9543L38.867 28.2943L40.7784 27.7057L35.4384 10.3657L33.527 10.9543ZM39.8227 27H35.3527V29H39.8227V27ZM36.315 27.728L35.145 23.588L33.2204 24.132L34.3904 28.272L36.315 27.728ZM34.1791 22.86L25.9891 22.89L25.9964 24.89L34.1864 24.86L34.1791 22.86ZM25.0309 23.6162L23.8609 27.7262L25.7845 28.2738L26.9545 24.1638L25.0309 23.6162ZM24.8227 27H20.3527V29H24.8227V27ZM28.4819 11.6729L26.1719 19.6829L28.0936 20.2371L30.4036 12.2271L28.4819 11.6729ZM27.1327 20.96H33.0427V18.96H27.1327V20.96ZM34.0045 19.6862L31.7245 11.6762L29.8009 12.2238L32.0809 20.2338L34.0045 19.6862ZM31.7243 11.6753C31.645 11.3979 31.5055 11.0404 31.2032 10.7597C30.8656 10.4462 30.4616 10.35 30.1027 10.35V12.35C30.1109 12.35 30.0774 12.3512 30.0208 12.3321C29.9586 12.3111 29.8952 12.2744 29.8423 12.2253C29.7932 12.1797 29.7733 12.1422 29.7719 12.1394C29.7715 12.1387 29.7832 12.1618 29.8012 12.2247L31.7243 11.6753ZM30.1027 10.35C29.7411 10.35 29.3526 10.4555 29.0264 10.7479C28.7246 11.0186 28.5692 11.3672 28.4812 11.6753L30.4043 12.2247C30.4362 12.1128 30.4459 12.1614 30.3615 12.2371C30.3161 12.2778 30.2608 12.3102 30.2033 12.3301C30.1488 12.3488 30.111 12.35 30.1027 12.35V10.35ZM46.4593 7.81H47.4593V6.81H46.4593V7.81ZM46.4593 23.95H45.4593V24.95H46.4593V23.95ZM55.8793 23.95H56.8793V22.95H55.8793V23.95ZM55.8793 28V29H56.8793V28H55.8793ZM42.0793 7.81V6.81H41.0793V7.81H42.0793ZM45.4593 7.81V23.95H47.4593V7.81H45.4593ZM46.4593 24.95H55.8793V22.95H46.4593V24.95ZM54.8793 23.95V28H56.8793V23.95H54.8793ZM55.8793 27H45.9493V29H55.8793V27ZM45.9493 27C44.7165 27 44.0567 26.6838 43.6917 26.3011C43.3182 25.9095 43.0793 25.2669 43.0793 24.25H41.0793C41.0793 25.5431 41.3804 26.7755 42.2444 27.6814C43.1169 28.5962 44.3921 29 45.9493 29V27ZM43.0793 24.25V7.81H41.0793V24.25H43.0793ZM42.0793 8.81H46.4593V6.81H42.0793V8.81ZM62.0464 7.81H63.0464V6.81H62.0464V7.81ZM62.0464 23.95H61.0464V24.95H62.0464V23.95ZM71.4664 23.95H72.4664V22.95H71.4664V23.95ZM71.4664 28V29H72.4664V28H71.4664ZM57.6664 7.81V6.81H56.6664V7.81H57.6664ZM61.0464 7.81V23.95H63.0464V7.81H61.0464ZM62.0464 24.95H71.4664V22.95H62.0464V24.95ZM70.4664 23.95V28H72.4664V23.95H70.4664ZM71.4664 27H61.5364V29H71.4664V27ZM61.5364 27C60.3036 27 59.6438 26.6838 59.2788 26.3011C58.9053 25.9095 58.6664 25.2669 58.6664 24.25H56.6664C56.6664 25.5431 56.9675 26.7755 57.8315 27.6814C58.704 28.5962 59.9792 29 61.5364 29V27ZM58.6664 24.25V7.81H56.6664V24.25H58.6664ZM57.6664 8.81H62.0464V6.81H57.6664V8.81ZM71.5086 28L70.5529 27.7057L70.1543 29H71.5086V28ZM76.8486 10.66L75.8948 10.3595L75.8929 10.3657L76.8486 10.66ZM85.6386 10.66L86.5943 10.3657L86.5924 10.3595L85.6386 10.66ZM90.9786 28V29H92.3329L91.9343 27.7057L90.9786 28ZM86.5086 28L85.5463 28.272L85.752 29H86.5086V28ZM85.3386 23.86L86.3009 23.588L86.0944 22.8572L85.3349 22.86L85.3386 23.86ZM77.1486 23.89L77.1449 22.89L76.3927 22.8928L76.1868 23.6162L77.1486 23.89ZM75.9786 28V29H76.7336L76.9404 28.2738L75.9786 28ZM80.5986 11.95L81.5594 12.2271L81.5601 12.2247L80.5986 11.95ZM78.2886 19.96L77.3277 19.6829L76.9594 20.96H78.2886V19.96ZM84.1986 19.96V20.96H85.523L85.1604 19.6862L84.1986 19.96ZM81.9186 11.95L82.8804 11.6762L82.8801 11.6753L81.9186 11.95ZM72.4643 28.2943L77.8043 10.9543L75.8929 10.3657L70.5529 27.7057L72.4643 28.2943ZM77.8024 10.9605C78.3485 9.22709 79.7314 8.42 81.2286 8.42V6.42C78.9458 6.42 76.7287 7.7129 75.8948 10.3595L77.8024 10.9605ZM81.2286 8.42C82.7597 8.42 84.1398 9.23053 84.6848 10.9605L86.5924 10.3595C85.7574 7.70946 83.5375 6.42 81.2286 6.42V8.42ZM84.6829 10.9543L90.0229 28.2943L91.9343 27.7057L86.5943 10.3657L84.6829 10.9543ZM90.9786 27H86.5086V29H90.9786V27ZM87.4709 27.728L86.3009 23.588L84.3763 24.132L85.5463 28.272L87.4709 27.728ZM85.3349 22.86L77.1449 22.89L77.1523 24.89L85.3423 24.86L85.3349 22.86ZM76.1868 23.6162L75.0168 27.7262L76.9404 28.2738L78.1104 24.1638L76.1868 23.6162ZM75.9786 27H71.5086V29H75.9786V27ZM79.6377 11.6729L77.3277 19.6829L79.2494 20.2371L81.5594 12.2271L79.6377 11.6729ZM78.2886 20.96H84.1986V18.96H78.2886V20.96ZM85.1604 19.6862L82.8804 11.6762L80.9568 12.2238L83.2368 20.2338L85.1604 19.6862ZM82.8801 11.6753C82.8009 11.3979 82.6613 11.0404 82.359 10.7597C82.0214 10.4462 81.6174 10.35 81.2586 10.35V12.35C81.2668 12.35 81.2332 12.3512 81.1767 12.3321C81.1144 12.3111 81.0511 12.2744 80.9981 12.2253C80.9491 12.1797 80.9292 12.1422 80.9277 12.1394C80.9274 12.1387 80.9391 12.1618 80.9571 12.2247L82.8801 11.6753ZM81.2586 10.35C80.897 10.35 80.5084 10.4555 80.1823 10.7479C79.8804 11.0186 79.7251 11.3672 79.6371 11.6753L81.5601 12.2247C81.5921 12.1128 81.6018 12.1614 81.5174 12.2371C81.472 12.2778 81.4167 12.3102 81.3591 12.3301C81.3047 12.3488 81.2668 12.35 81.2586 12.35V10.35ZM96.3852 28V29H97.2518L97.375 28.1422L96.3852 28ZM91.9452 28L90.9573 27.8447L90.7757 29H91.9452V28ZM94.6752 10.63L93.6894 10.461L93.6873 10.4747L94.6752 10.63ZM102.355 10.15L101.384 10.389L101.387 10.3994L101.389 10.4098L102.355 10.15ZM105.745 22.75H106.745V22.6178L106.711 22.4902L105.745 22.75ZM105.835 22.75L104.869 22.4928L104.835 22.6192V22.75H105.835ZM109.165 10.24L110.132 10.4972L110.133 10.493L109.165 10.24ZM116.815 10.72L115.825 10.8576L115.825 10.8626L116.815 10.72ZM119.305 28V29H120.46L120.295 27.8574L119.305 28ZM114.865 28L113.873 28.1222L113.981 29H114.865V28ZM112.915 12.16H111.915V12.2213L111.923 12.2822L112.915 12.16ZM112.585 12.1L113.548 12.3699L113.552 12.3563L113.555 12.3425L112.585 12.1ZM108.835 25.48L107.872 25.2101L107.871 25.2153L108.835 25.48ZM102.745 25.57L103.716 25.3321L103.713 25.3169L103.709 25.3018L102.745 25.57ZM98.9952 12.1L98.0146 12.2961L98.0218 12.3325L98.0318 12.3682L98.9952 12.1ZM98.6652 12.13L99.655 12.2722L99.6652 12.2015V12.13H98.6652ZM96.3852 27H91.9452V29H96.3852V27ZM92.933 28.1553L95.663 10.7853L93.6873 10.4747L90.9573 27.8447L92.933 28.1553ZM95.6608 10.799C95.8062 9.95048 96.1583 9.37961 96.6091 9.01495C97.0649 8.64622 97.7066 8.42 98.5452 8.42V6.42C97.3437 6.42 96.2304 6.74877 95.3512 7.46005C94.467 8.17539 93.9041 9.20951 93.6895 10.461L95.6608 10.799ZM98.5452 8.42C99.309 8.42 99.9347 8.58624 100.396 8.88939C100.838 9.17988 101.2 9.64127 101.384 10.389L103.326 9.91098C103.03 8.70873 102.387 7.80511 101.494 7.21811C100.621 6.64376 99.5813 6.42 98.5452 6.42V8.42ZM101.389 10.4098L104.779 23.0098L106.711 22.4902L103.321 9.89019L101.389 10.4098ZM104.745 22.75C104.745 22.8745 104.76 23.1315 104.928 23.3834C105.021 23.5227 105.153 23.648 105.323 23.733C105.405 23.7739 105.487 23.801 105.564 23.8176C105.603 23.8259 105.64 23.8315 105.675 23.835C105.693 23.8368 105.71 23.838 105.727 23.8388C105.735 23.8392 105.743 23.8395 105.751 23.8397C105.755 23.8398 105.759 23.8399 105.763 23.8399C105.765 23.84 105.767 23.84 105.769 23.84C105.77 23.84 105.772 23.84 105.772 23.84C105.774 23.84 105.775 23.84 105.775 22.84C105.775 21.84 105.777 21.84 105.778 21.84C105.779 21.84 105.78 21.84 105.781 21.84C105.783 21.84 105.785 21.84 105.787 21.8401C105.791 21.8401 105.795 21.8402 105.799 21.8403C105.807 21.8405 105.815 21.8408 105.823 21.8412C105.84 21.842 105.857 21.8432 105.874 21.8449C105.909 21.8484 105.946 21.8539 105.983 21.862C106.059 21.8783 106.139 21.9047 106.218 21.9442C106.382 22.0264 106.507 22.1461 106.592 22.2741C106.745 22.5035 106.745 22.7155 106.745 22.75H104.745ZM105.775 23.84C105.776 23.84 105.784 23.84 105.793 23.8399C105.802 23.8398 105.816 23.8395 105.834 23.8387C105.868 23.8371 105.925 23.8329 105.993 23.8192C106.143 23.7892 106.346 23.7136 106.524 23.5359C106.84 23.2194 106.835 22.8266 106.835 22.75H104.835C104.835 22.725 104.836 22.6499 104.862 22.5511C104.889 22.4486 104.953 22.2783 105.109 22.1216C105.437 21.7942 105.871 21.84 105.775 21.84V23.84ZM106.802 23.0072L110.132 10.4972L108.199 9.98277L104.869 22.4928L106.802 23.0072ZM110.133 10.493C110.33 9.73884 110.711 9.24458 111.18 8.92728C111.663 8.60103 112.304 8.42 113.065 8.42V6.42C111.997 6.42 110.942 6.67397 110.06 7.27022C109.165 7.87542 108.51 8.79116 108.198 9.98697L110.133 10.493ZM113.065 8.42C113.88 8.42 114.497 8.64848 114.931 9.01988C115.363 9.38884 115.702 9.97476 115.825 10.8576L117.806 10.5824C117.628 9.30524 117.098 8.24116 116.231 7.50012C115.368 6.76152 114.26 6.42 113.065 6.42V8.42ZM115.825 10.8626L118.315 28.1426L120.295 27.8574L117.805 10.5774L115.825 10.8626ZM119.305 27H114.865V29H119.305V27ZM115.858 27.8778L113.908 12.0378L111.923 12.2822L113.873 28.1222L115.858 27.8778ZM113.915 12.16C113.915 12.0674 113.915 11.7842 113.763 11.5049C113.672 11.3389 113.528 11.1737 113.32 11.0593C113.118 10.949 112.919 10.92 112.765 10.92V12.92C112.671 12.92 112.521 12.9022 112.359 12.8135C112.189 12.7207 112.075 12.5874 112.007 12.4626C111.946 12.3499 111.927 12.2549 111.921 12.216C111.914 12.1746 111.915 12.1513 111.915 12.16H113.915ZM112.765 10.92C112.473 10.92 112.175 11.0281 111.946 11.2579C111.742 11.4618 111.655 11.6972 111.615 11.8575L113.555 12.3425C113.545 12.3828 113.504 12.5282 113.36 12.6721C113.19 12.8419 112.968 12.92 112.765 12.92V10.92ZM111.622 11.8301L107.872 25.2101L109.798 25.7499L113.548 12.3699L111.622 11.8301ZM107.871 25.2153C107.717 25.7764 107.438 26.1443 107.108 26.3789C106.771 26.6184 106.322 26.76 105.775 26.76V28.76C106.668 28.76 107.539 28.5266 108.267 28.0086C109.003 27.4857 109.534 26.7136 109.799 25.7447L107.871 25.2153ZM105.775 26.76C104.727 26.76 103.939 26.2409 103.716 25.3321L101.774 25.8079C102.271 27.8391 104.063 28.76 105.775 28.76V26.76ZM103.709 25.3018L99.9585 11.8318L98.0318 12.3682L101.782 25.8382L103.709 25.3018ZM99.9757 11.9039C99.9426 11.7381 99.8636 11.4717 99.6385 11.2466C99.3753 10.9834 99.0611 10.92 98.8452 10.92V12.92C98.6892 12.92 98.4351 12.8716 98.2243 12.6609C98.0517 12.4883 98.0177 12.3119 98.0146 12.2961L99.9757 11.9039ZM98.8452 10.92C98.5821 10.92 98.2665 11.0094 98.0143 11.2616C97.7544 11.5215 97.6652 11.8498 97.6652 12.13H99.6652C99.6652 12.2602 99.6209 12.4835 99.4285 12.6759C99.2438 12.8606 99.0182 12.92 98.8452 12.92V10.92ZM97.6753 11.9878L95.3953 27.8578L97.375 28.1422L99.655 12.2722L97.6753 11.9878ZM120.261 28L119.305 27.7057L118.907 29H120.261V28ZM125.601 10.66L124.647 10.3595L124.645 10.3657L125.601 10.66ZM134.391 10.66L135.347 10.3657L135.345 10.3595L134.391 10.66ZM139.731 28V29H141.085L140.687 27.7057L139.731 28ZM135.261 28L134.299 28.272L134.504 29H135.261V28ZM134.091 23.86L135.053 23.588L134.847 22.8572L134.087 22.86L134.091 23.86ZM125.901 23.89L125.897 22.89L125.145 22.8928L124.939 23.6162L125.901 23.89ZM124.731 28V29H125.486L125.693 28.2738L124.731 28ZM129.351 11.95L130.312 12.2271L130.312 12.2247L129.351 11.95ZM127.041 19.96L126.08 19.6829L125.712 20.96H127.041V19.96ZM132.951 19.96V20.96H134.275L133.913 19.6862L132.951 19.96ZM130.671 11.95L131.633 11.6762L131.632 11.6753L130.671 11.95ZM121.217 28.2943L126.557 10.9543L124.645 10.3657L119.305 27.7057L121.217 28.2943ZM126.555 10.9605C127.101 9.22709 128.484 8.42 129.981 8.42V6.42C127.698 6.42 125.481 7.7129 124.647 10.3595L126.555 10.9605ZM129.981 8.42C131.512 8.42 132.892 9.23053 133.437 10.9605L135.345 10.3595C134.51 7.70946 132.29 6.42 129.981 6.42V8.42ZM133.435 10.9543L138.775 28.2943L140.687 27.7057L135.347 10.3657L133.435 10.9543ZM139.731 27H135.261V29H139.731V27ZM136.223 27.728L135.053 23.588L133.129 24.132L134.299 28.272L136.223 27.728ZM134.087 22.86L125.897 22.89L125.905 24.89L134.095 24.86L134.087 22.86ZM124.939 23.6162L123.769 27.7262L125.693 28.2738L126.863 24.1638L124.939 23.6162ZM124.731 27H120.261V29H124.731V27ZM128.39 11.6729L126.08 19.6829L128.002 20.2371L130.312 12.2271L128.39 11.6729ZM127.041 20.96H132.951V18.96H127.041V20.96ZM133.913 19.6862L131.633 11.6762L129.709 12.2238L131.989 20.2338L133.913 19.6862ZM131.632 11.6753C131.553 11.3979 131.414 11.0404 131.111 10.7597C130.774 10.4462 130.37 10.35 130.011 10.35V12.35C130.019 12.35 129.986 12.3512 129.929 12.3321C129.867 12.3111 129.803 12.2744 129.75 12.2253C129.701 12.1797 129.682 12.1422 129.68 12.1394C129.68 12.1387 129.691 12.1618 129.709 12.2247L131.632 11.6753ZM130.011 10.35C129.649 10.35 129.261 10.4555 128.935 10.7479C128.633 11.0186 128.477 11.3672 128.389 11.6753L130.312 12.2247C130.344 12.1128 130.354 12.1614 130.27 12.2371C130.224 12.2778 130.169 12.3102 130.111 12.3301C130.057 12.3488 130.019 12.35 130.011 12.35V10.35ZM140.638 23.98L140.19 23.0856L139.333 23.5142L139.725 24.3888L140.638 23.98ZM144.298 22.15L145.21 21.7404L144.783 20.7893L143.85 21.2556L144.298 22.15ZM148.108 19.84L148.276 18.8544L148.273 18.8539L148.108 19.84ZM155.818 11.86L156.265 12.7544L157.122 12.3258L156.73 11.4512L155.818 11.86ZM152.158 13.69L151.267 14.1455L151.719 15.0275L152.605 14.5844L152.158 13.69ZM149.218 15.94L149.042 16.9245L149.05 16.9259L149.218 15.94ZM148.468 27.39C145.115 27.39 142.636 25.9961 141.55 23.5712L139.725 24.3888C141.219 27.7239 144.56 29.39 148.468 29.39V27.39ZM141.085 24.8744L144.745 23.0444L143.85 21.2556L140.19 23.0856L141.085 24.8744ZM143.385 22.5596C144.258 24.5041 146.118 25.37 148.468 25.37V23.37C146.617 23.37 145.657 22.7359 145.21 21.7404L143.385 22.5596ZM148.468 25.37C149.531 25.37 150.568 25.1534 151.374 24.6465C152.216 24.1164 152.798 23.2632 152.798 22.15H150.798C150.798 22.4768 150.659 22.7336 150.309 22.9535C149.922 23.1966 149.294 23.37 148.468 23.37V25.37ZM152.798 22.15C152.798 21.5644 152.656 21.0282 152.343 20.5682C152.035 20.1166 151.614 19.8141 151.179 19.6015C150.361 19.2017 149.272 19.025 148.276 18.8544L147.939 20.8256C149.043 21.015 149.799 21.1533 150.301 21.3985C150.526 21.5084 150.633 21.6109 150.69 21.6936C150.74 21.7681 150.798 21.8956 150.798 22.15H152.798ZM148.273 18.8539C146.77 18.6008 145.163 18.2273 143.942 17.4425C142.792 16.7033 141.968 15.5952 141.968 13.69H139.968C139.968 16.3448 141.198 18.0567 142.861 19.125C144.452 20.1477 146.415 20.5692 147.942 20.8261L148.273 18.8539ZM141.968 13.69C141.968 10.8495 144.54 8.45 148.318 8.45V6.45C143.755 6.45 139.968 9.45049 139.968 13.69H141.968ZM148.318 8.45C151.345 8.45 153.81 9.8249 154.905 12.2688L156.73 11.4512C155.245 8.1351 151.95 6.45 148.318 6.45V8.45ZM155.37 10.9656L151.71 12.7956L152.605 14.5844L156.265 12.7544L155.37 10.9656ZM153.048 13.2345C152.2 11.5771 150.514 10.5 148.138 10.5V12.5C149.841 12.5 150.795 13.2229 151.267 14.1455L153.048 13.2345ZM148.138 10.5C147.169 10.5 146.251 10.7273 145.545 11.2283C144.811 11.749 144.348 12.545 144.348 13.51H146.348C146.348 13.245 146.454 13.036 146.703 12.8592C146.979 12.6627 147.456 12.5 148.138 12.5V10.5ZM144.348 13.51C144.348 14.1001 144.505 14.6351 144.826 15.0926C145.138 15.5377 145.562 15.8488 146.004 16.0758C146.854 16.5118 147.971 16.7338 149.042 16.9245L149.393 14.9555C148.274 14.7562 147.456 14.5731 146.918 14.2967C146.666 14.1674 146.534 14.0454 146.463 13.944C146.4 13.8549 146.348 13.7299 146.348 13.51H144.348ZM149.05 16.9259C150.536 17.1786 152.093 17.5509 153.269 18.3328C154.373 19.0667 155.178 20.1806 155.178 22.12H157.178C157.178 19.4694 156.002 17.7483 154.376 16.6672C152.822 15.6341 150.899 15.2114 149.385 14.9541L149.05 16.9259ZM155.178 22.12C155.178 25.0016 152.424 27.39 148.468 27.39V29.39C153.091 29.39 157.178 26.4984 157.178 22.12H155.178Z" fill="#1D1D1D" mask="url(#path-1-outside-1_4234_1861)"/>
</svg>
