<svg width="20" height="20" viewBox="0 0 20 20" fill="none" xmlns="http://www.w3.org/2000/svg">
<path d="M9.58464 6.66699H16.8313C17.352 6.66699 17.6123 6.66699 17.8029 6.75103C18.646 7.12274 18.2691 8.05928 18.1272 8.73233C18.1017 8.85324 18.0188 8.95616 17.9026 9.01133C17.4207 9.23999 17.0831 9.67374 16.9946 10.1782L16.5007 12.9902C16.2835 14.2274 16.2092 15.9956 15.125 16.8672C14.3295 17.5003 13.1833 17.5003 10.8909 17.5003H9.11172C6.81932 17.5003 5.67314 17.5003 4.87764 16.8672C3.7934 15.9955 3.71912 14.2274 3.50185 12.9902L3.00803 10.1782C2.91945 9.67374 2.58191 9.23999 2.09998 9.01133C1.98377 8.95616 1.9009 8.85324 1.87542 8.73233C1.73359 8.05928 1.35664 7.12274 2.19974 6.75103C2.39034 6.66699 2.65065 6.66699 3.17128 6.66699H6.2513" stroke="#1D1D1D" stroke-width="1.5" stroke-linecap="round"/>
<path d="M11.6654 10H8.33203" stroke="#1D1D1D" stroke-width="1.5" stroke-linecap="round" stroke-linejoin="round"/>
<path d="M5.41797 9.16667L8.33464 2.5M12.5013 2.5L14.5846 6.66667" stroke="#1D1D1D" stroke-width="1.5" stroke-linecap="round"/>
</svg>
